#Comment line ignore any data following # character 
#Hierarchical Translation and Rotation (.htr) file 
[Header]	
#Header keywords are followed by a single value 
FileType HTR		#Single word string
DataType HTRS		#Translation followed by rotation and scale data
FileVersion 1		#integer
NumSegments 25		#integer
NumFrames 6		#integer
DataFrameRate 30		#integer, data frame rate in this file
EulerRotationOrder ZYX
CalibrationUnits mm
RotationUnits Degrees
GlobalAxisofGravity Y
BoneLengthAxis Y
ScaleFactor 1.00
[SegmentNames&Hierarchy]
#CHILD	PARENT
BN_Tick_Root GLOBAL
BN_Torso BN_Tick_Root
BN_L_Leg_Front01 BN_Torso
BN_L_Leg_Rear01 BN_Torso
BN_MetalTop BN_Torso
BN_Neck BN_Torso
BN_R_Leg_Front01 BN_Torso
BN_R_Leg_Rear01 BN_Torso
BN_Sack BN_Torso
BN_L_Leg_Front02 BN_L_Leg_Front01
BN_L_Leg_Front03 BN_L_Leg_Front02
BN_L_Leg_Rear02 BN_L_Leg_Rear01
BN_L_Leg_Rear03 BN_L_Leg_Rear02
BN_Head BN_Neck
BN_Needle BN_Head
BN_R_Leg_Front02 BN_R_Leg_Front01
BN_R_Leg_Front03 BN_R_Leg_Front02
BN_R_Leg_Rear02 BN_R_Leg_Rear01
BN_R_Leg_Rear03 BN_R_Leg_Rear02
BN_SackDef01 BN_Sack
BN_SackDef02 BN_Sack
BN_SackDef03 BN_Sack
BN_SackDef04 BN_Sack
BN_SackDef05 BN_Sack
BN_SackDef06 BN_Sack
[BasePosition]
#SegmentName Tx, Ty, Tz, Rx, Ry, Rz, BoneLength
BN_Tick_Root 0.000000 0.000000 0.000000 -90.000000 0.000000 0.000000 10.000000 
BN_Torso 0.000000 0.000000 0.000000 0.000000 0.000000 0.000000 10.000000 
BN_L_Leg_Front01 0.000000 0.000000 0.000000 0.000000 0.000000 0.000000 10.000000 
BN_L_Leg_Rear01 0.000000 0.000000 0.000000 0.000000 0.000000 0.000000 10.000000 
BN_MetalTop 0.000000 0.000000 0.000000 0.000000 0.000000 0.000000 10.000000 
BN_Neck 0.000000 0.000000 0.000000 0.000000 0.000000 0.000000 10.000000 
BN_R_Leg_Front01 0.000000 0.000000 0.000000 0.000000 0.000000 0.000000 10.000000 
BN_R_Leg_Rear01 0.000000 0.000000 0.000000 0.000000 0.000000 0.000000 10.000000 
BN_Sack 0.000000 0.000000 0.000000 0.000000 0.000000 0.000000 10.000000 
BN_L_Leg_Front02 0.000000 0.000000 0.000000 0.000000 0.000000 0.000000 10.000000 
BN_L_Leg_Front03 0.000000 0.000000 0.000000 0.000000 0.000000 0.000000 10.000000 
BN_L_Leg_Rear02 0.000000 0.000000 0.000000 0.000000 0.000000 0.000000 10.000000 
BN_L_Leg_Rear03 0.000000 0.000000 0.000000 0.000000 0.000000 0.000000 10.000000 
BN_Head 0.000000 0.000000 0.000000 0.000000 0.000000 0.000000 10.000000 
BN_Needle 0.000000 0.000000 0.000000 0.000000 0.000000 0.000000 10.000000 
BN_R_Leg_Front02 0.000000 0.000000 0.000000 0.000000 0.000000 0.000000 10.000000 
BN_R_Leg_Front03 0.000000 0.000000 0.000000 0.000000 0.000000 0.000000 10.000000 
BN_R_Leg_Rear02 0.000000 0.000000 0.000000 0.000000 0.000000 0.000000 10.000000 
BN_R_Leg_Rear03 0.000000 0.000000 0.000000 0.000000 0.000000 0.000000 10.000000 
BN_SackDef01 0.000000 0.000000 0.000000 0.000000 0.000000 0.000000 10.000000 
BN_SackDef02 0.000000 0.000000 0.000000 0.000000 0.000000 0.000000 10.000000 
BN_SackDef03 0.000000 0.000000 0.000000 0.000000 0.000000 0.000000 10.000000 
BN_SackDef04 0.000000 0.000000 0.000000 0.000000 0.000000 0.000000 10.000000 
BN_SackDef05 0.000000 0.000000 0.000000 0.000000 0.000000 0.000000 10.000000 
BN_SackDef06 0.000000 0.000000 0.000000 0.000000 0.000000 0.000000 10.000000 
#Beginning of Data. Separated by tabs
#Fr	Tx	Ty	Tz	Rx	Ry	Rz	SF
[BN_Tick_Root]
659 0.000000 0.000000 0.000000 0.000000 0.000000 -0.000020 0.000000
660 0.000000 0.000000 0.000000 0.000000 0.000000 -0.000020 0.000000
661 0.000000 0.000000 0.000000 0.000000 0.000000 -0.000020 0.000000
662 0.000000 0.000000 0.000000 0.000000 0.000000 -0.000020 0.000000
663 0.000000 0.000000 0.000000 0.000000 0.000000 -0.000020 0.000000
664 0.000000 0.000000 0.000000 0.000000 0.000000 -0.000020 0.000000
[BN_Torso]
659 782.701477 -1606.569946 298.317902 35.167465 -0.436403 -33.721581 1811.817261
660 780.711731 -1606.627808 298.310852 35.028996 -0.435178 -34.825958 1811.008911
661 778.320679 -1605.149658 298.295227 34.576633 -0.436407 -37.246761 1808.664795
662 775.929260 -1603.673584 298.279633 33.749825 -0.435705 -39.673409 1806.323853
663 772.898071 -1604.578247 298.284943 32.483170 -0.433556 -40.771111 1805.828491
664 760.197937 -1614.865845 312.799896 24.819078 -0.433789 -40.771126 1812.053223
[BN_L_Leg_Front01]
659 -68.477791 10.734189 -26.804373 69.245850 62.604355 -121.950150 74.316254
660 -68.477791 10.734189 -26.804373 68.408096 62.451550 -122.063499 74.316254
661 -68.477791 10.734189 -26.804373 66.301018 61.879719 -121.955231 74.316254
662 -68.477791 10.734189 -26.804373 63.802246 61.731400 -122.264748 74.316254
663 -68.477791 10.734189 -26.804373 61.584961 62.773319 -123.930679 74.316254
664 -68.477791 10.734189 -26.804373 49.367939 70.245026 -138.638947 74.316254
[BN_L_Leg_Rear01]
659 -72.133743 -73.994843 -18.268616 106.744789 39.678261 -128.589432 104.939293
660 -72.133743 -73.994843 -18.268616 105.916100 39.540852 -127.797348 104.939293
661 -72.133743 -73.994843 -18.268616 103.566971 39.042377 -126.063927 104.939293
662 -72.133743 -73.994843 -18.268616 101.047722 39.047241 -124.486153 104.939293
663 -72.133743 -73.994843 -18.268616 99.762833 40.348499 -124.224953 104.939293
664 -72.133743 -73.994843 -18.268616 98.024391 51.845940 -128.221725 104.939293
[BN_MetalTop]
659 0.000008 13.737477 26.403606 87.835236 -48.123791 -102.831726 29.763546
660 0.000008 13.737477 26.403606 87.171402 -48.142303 -102.030899 29.763546
661 0.000008 13.737477 26.403606 85.682014 -48.025940 -100.248932 29.763546
662 0.000008 13.737477 26.403606 84.134827 -47.556042 -98.422569 29.763546
663 0.000008 13.737477 26.403606 83.294319 -46.544479 -97.491722 29.763546
664 0.000008 13.737477 26.403606 83.731270 -41.793507 -98.119324 29.763546
[BN_Neck]
659 0.000014 95.233284 10.002091 -89.999672 -65.297531 89.999657 95.757088
660 0.000014 95.233284 10.002091 -89.999672 -65.297531 89.999657 95.757088
661 0.000014 95.233284 10.002091 -89.999672 -65.297531 89.999657 95.757088
662 0.000014 95.233284 10.002091 -89.999672 -65.297531 89.999657 95.757088
663 0.000014 95.233284 10.002091 -89.999672 -65.297531 89.999657 95.757088
664 0.000014 95.233284 10.002091 -89.999672 -65.297531 89.999657 95.757088
[BN_R_Leg_Front01]
659 68.477768 10.734107 -26.804314 -37.011909 50.445187 -66.623665 74.316193
660 68.477768 10.734107 -26.804314 -37.906628 51.042213 -65.700050 74.316193
661 68.477768 10.734107 -26.804314 -39.478046 52.292679 -64.151421 74.316193
662 68.477768 10.734107 -26.804314 -40.657852 53.961029 -62.182022 74.316193
663 68.477768 10.734107 -26.804314 -40.424805 55.750534 -59.966499 74.316193
664 68.477768 10.734107 -26.804314 -33.021244 63.366726 -49.355213 74.316193
[BN_R_Leg_Rear01]
659 72.133751 -73.994873 -18.268644 -67.695000 23.619314 -84.958862 104.939331
660 72.133751 -73.994873 -18.268644 -68.734657 24.198254 -83.966560 104.939331
661 72.133751 -73.994873 -18.268644 -70.923920 25.373287 -81.886009 104.939331
662 72.133751 -73.994873 -18.268644 -73.078262 27.111759 -79.737175 104.939331
663 72.133751 -73.994873 -18.268644 -73.996979 29.310272 -78.556511 104.939331
664 72.133751 -73.994873 -18.268644 -72.955185 42.322880 -76.680534 104.939331
[BN_Sack]
659 -0.000000 -78.024918 33.657791 94.121521 -10.274261 -103.311783 84.974907
660 -0.000000 -78.024918 33.657791 92.609467 -7.202824 -98.308578 84.974907
661 -0.000000 -78.024918 33.657791 91.729828 -4.499290 -93.189522 84.974907
662 -0.000000 -78.024918 33.657791 92.424706 -3.684047 -92.901764 84.974907
663 -0.000000 -78.024918 33.657791 93.266174 -3.392501 -92.837326 84.974907
664 -0.000000 -78.024918 33.657791 93.418373 -2.649357 -93.485374 84.974907
[BN_L_Leg_Front02]
659 142.805023 -0.000015 -0.000104 0.170410 0.341728 -97.481804 142.805023
660 142.805023 -0.000015 -0.000104 0.169999 0.341943 -97.620377 142.805023
661 142.805023 -0.000015 -0.000104 0.170478 0.353776 -98.371864 142.805023
662 142.805023 -0.000015 -0.000104 0.170796 0.365597 -99.122681 142.805023
663 142.805023 -0.000015 -0.000104 0.164388 0.358026 -99.122704 142.805023
664 142.805023 -0.000015 -0.000104 0.185160 0.286705 -91.478813 142.805023
[BN_L_Leg_Front03]
659 124.143021 -0.000045 0.000007 0.352145 -0.430257 105.822556 124.143021
660 124.143021 -0.000045 0.000007 0.351541 -0.430751 105.984192 124.143021
661 124.143021 -0.000045 0.000007 0.352377 -0.430361 106.818886 124.143021
662 124.143021 -0.000045 0.000007 0.353218 -0.429985 107.652817 124.143021
663 124.143021 -0.000045 0.000007 0.353218 -0.429994 107.645355 124.143021
664 124.143021 -0.000045 0.000007 0.353871 -0.441432 98.877342 124.143021
[BN_L_Leg_Rear02]
659 139.939041 0.000075 -0.000022 0.084980 -0.227097 94.213371 139.939041
660 139.939041 0.000075 -0.000022 0.083662 -0.231029 94.804565 139.939041
661 139.939041 0.000075 -0.000022 0.082302 -0.234940 95.395836 139.939041
662 139.939041 0.000075 -0.000022 0.079615 -0.230036 95.988220 139.939041
663 139.939041 0.000075 -0.000022 0.076990 -0.225105 96.577522 139.939041
664 139.939041 0.000075 -0.000022 0.086522 -0.219602 93.545074 139.939041
[BN_L_Leg_Rear03]
659 142.839615 0.000179 -0.000060 0.000464 -0.002301 -112.785233 142.839615
660 142.839615 0.000179 -0.000060 0.000477 -0.002298 -113.456970 142.839615
661 142.839615 0.000179 -0.000060 0.000491 -0.002296 -114.128822 142.839615
662 142.839615 0.000179 -0.000060 0.000504 -0.002293 -114.800644 142.839615
663 142.839615 0.000179 -0.000060 0.000517 -0.002289 -115.468887 142.839615
664 142.839615 0.000179 -0.000060 0.000448 -0.002304 -112.005592 142.839615
[BN_Head]
659 57.062447 -0.000030 0.000000 0.207723 25.887217 67.004623 57.062447
660 57.062447 -0.000030 0.000000 0.573966 25.020618 66.937538 57.062447
661 57.062447 -0.000030 0.000000 1.829291 23.084555 66.914360 57.062447
662 57.062447 -0.000030 0.000000 3.099915 21.151358 66.468643 57.062447
663 57.062447 -0.000030 0.000000 3.590892 20.311176 65.243546 57.062447
664 57.062447 -0.000030 0.000000 3.467522 20.374599 57.307583 57.062447
[BN_Needle]
659 43.342854 326.397949 -0.000439 0.000003 0.000030 87.896805 329.263184
660 43.342854 326.397949 -0.000442 0.000003 0.000030 87.896805 329.263184
661 43.342854 326.397919 -0.000445 0.000003 0.000030 87.896805 329.263123
662 43.342854 326.397919 -0.000447 0.000003 0.000030 87.896805 329.263123
663 43.342854 326.397919 -0.000450 0.000003 0.000030 87.896805 329.263123
664 43.342854 326.397919 -0.000453 0.000003 0.000030 87.896805 329.263123
[BN_R_Leg_Front02]
659 142.804947 -0.000060 0.000060 -0.160838 0.384401 101.015060 142.804947
660 142.804947 -0.000060 0.000060 -0.163108 0.376756 100.529556 142.804947
661 142.804947 -0.000060 0.000060 -0.165314 0.369094 100.043907 142.804947
662 142.804947 -0.000060 0.000060 -0.167460 0.364777 99.467072 142.804947
663 142.804947 -0.000060 0.000060 -0.169580 0.360380 98.884491 142.804947
664 142.804947 -0.000060 0.000060 -0.186046 0.285764 91.591782 142.804947
[BN_R_Leg_Front03]
659 124.143005 -0.000060 -0.000156 -0.356060 -0.422733 -109.707924 124.143005
660 124.143005 -0.000060 -0.000156 -0.353703 -0.424181 -109.253548 124.143005
661 124.143005 -0.000060 -0.000156 -0.354288 -0.425534 -108.633255 124.143005
662 124.143005 -0.000060 -0.000156 -0.354887 -0.426881 -108.012985 124.143005
663 124.143005 -0.000060 -0.000156 -0.355499 -0.428232 -107.386124 124.143005
664 124.143005 -0.000060 -0.000156 -0.354587 -0.440794 -99.012199 124.143005
[BN_R_Leg_Rear02]
659 139.939011 -0.000149 0.000015 -0.106442 -0.234771 -89.254692 139.939011
660 139.939011 -0.000149 0.000015 -0.102689 -0.232322 -89.948174 139.939011
661 139.939011 -0.000149 0.000015 -0.098966 -0.229827 -90.641769 139.939011
662 139.939011 -0.000149 0.000015 -0.095272 -0.227281 -91.335426 139.939011
663 139.939011 -0.000149 0.000015 -0.090285 -0.217438 -92.188087 139.939011
664 139.939011 -0.000149 0.000015 -0.092302 -0.216589 -91.124352 139.939011
[BN_R_Leg_Rear03]
659 142.839417 0.000075 0.000119 0.002322 -0.000345 106.894264 142.839417
660 142.839417 0.000075 0.000119 0.002319 -0.000361 107.705750 142.839417
661 142.839417 0.000075 0.000119 0.002317 -0.000378 108.517441 142.839417
662 142.839417 0.000075 0.000119 0.002314 -0.000397 109.468452 142.839417
663 142.839417 0.000075 0.000119 0.002310 -0.000416 110.417587 142.839417
664 142.839417 0.000075 0.000119 0.002314 -0.000391 109.157837 142.839417
[BN_SackDef01]
659 597.936707 -15.747070 103.386688 -128.408218 -44.374973 -11.740845 607.013245
660 597.936707 -15.747070 103.386688 -128.408218 -44.374973 -11.740845 607.013245
661 597.936707 -15.747070 103.386688 -128.408218 -44.374973 -11.740845 607.013245
662 597.936707 -15.747070 103.386688 -128.408218 -44.374973 -11.740845 607.013245
663 597.936707 -15.747070 103.386688 -128.408218 -44.374973 -11.740845 607.013245
664 597.936707 -15.747070 103.386688 -128.408218 -44.374973 -11.740845 607.013245
[BN_SackDef02]
659 233.072037 -211.160049 118.223412 32.077126 -27.375721 -88.781525 335.987976
660 233.072037 -211.160049 118.223412 32.077126 -27.375721 -88.781525 335.987976
661 233.072037 -211.160049 118.223412 32.077126 -27.375721 -88.781525 335.987976
662 233.072037 -211.160049 118.223412 32.077126 -27.375721 -88.781525 335.987976
663 233.072037 -211.160049 118.223412 32.077126 -27.375721 -88.781525 335.987976
664 233.072037 -211.160049 118.223412 32.077126 -27.375721 -88.781525 335.987976
[BN_SackDef03]
659 597.936523 -15.747070 -103.387444 18.144459 44.375008 -11.740894 607.013184
660 597.936523 -15.747070 -103.387444 18.144459 44.375008 -11.740894 607.013184
661 597.936523 -15.747070 -103.387444 18.144459 44.375008 -11.740894 607.013184
662 597.936523 -15.747070 -103.387444 18.144459 44.375008 -11.740894 607.013184
663 597.936523 -15.747070 -103.387444 18.144459 44.375008 -11.740894 607.013184
664 597.936523 -15.747070 -103.387444 18.144459 44.375008 -11.740894 607.013184
[BN_SackDef04]
659 233.072037 -211.160049 -118.223572 146.059982 27.375723 -88.781555 335.988037
660 233.072037 -211.160049 -118.223572 146.059982 27.375723 -88.781555 335.988037
661 233.072037 -211.160049 -118.223572 146.059982 27.375723 -88.781555 335.988037
662 233.072037 -211.160049 -118.223572 146.059982 27.375723 -88.781555 335.988037
663 233.072037 -211.160049 -118.223572 146.059982 27.375723 -88.781555 335.988037
664 233.072037 -211.160049 -118.223572 146.059982 27.375723 -88.781555 335.988037
[BN_SackDef05]
659 289.340973 263.516754 -164.100494 0.155741 51.314110 90.605110 424.368073
660 289.340973 263.516754 -164.100494 0.155741 51.314110 90.605110 424.368073
661 289.340973 263.516754 -164.100494 0.155741 51.314110 90.605110 424.368073
662 289.340973 263.516754 -164.100494 0.155741 51.314110 90.605110 424.368073
663 289.340973 263.516754 -164.100494 0.155741 51.314110 90.605110 424.368073
664 289.340973 263.516754 -164.100494 0.155741 51.314110 90.605110 424.368073
[BN_SackDef06]
659 289.340820 263.516907 164.100189 152.058487 -51.314072 90.605019 424.367920
660 289.340820 263.516907 164.100189 152.058487 -51.314072 90.605019 424.367920
661 289.340820 263.516907 164.100189 152.058487 -51.314072 90.605019 424.367920
662 289.340820 263.516907 164.100189 152.058487 -51.314072 90.605019 424.367920
663 289.340820 263.516907 164.100189 152.058487 -51.314072 90.605019 424.367920
664 289.340820 263.516907 164.100189 152.058487 -51.314072 90.605019 424.367920
